<?xml version="1.0" encoding="UTF-8"?>
<svg width="171px" height="21px" viewBox="0 0 171 21" version="1.1" xmlns="http://www.w3.org/2000/svg" xmlns:xlink="http://www.w3.org/1999/xlink">
    <!-- Generator: Sketch 3.6.1 (26313) - http://www.bohemiancoding.com/sketch -->
    <title>logo</title>
    <desc>Created with Sketch.</desc>
    <defs></defs>
    <g id="Page-1" stroke="none" stroke-width="1" fill="none" fill-rule="evenodd">
        <g id="logo">
            <path d="M169.22,9.238 C168.032,9.238 166.448,9.918 165.853,10.795 L165.853,19.822 L162.259,19.822 L162.259,6.154 L165.852,6.154 L165.852,7.994 C166.842,6.804 168.512,5.814 170.21,5.814 L170.21,9.324 C169.957,9.267 169.645,9.238 169.22,9.238 L169.22,9.238 Z M154.138,17.218 C155.298,17.218 156.883,16.738 157.76,15.888 L159.373,18.266 C158.015,19.511 155.863,20.162 153.741,20.162 C149.581,20.162 146.441,17.36 146.441,12.974 C146.441,9.012 149.384,5.814 153.516,5.814 C157.619,5.814 160.364,8.87 160.364,13.314 L160.364,14.162 L150.204,14.162 C150.46,15.832 151.818,17.219 154.139,17.219 L154.138,17.218 Z M156.911,11.672 C156.799,10.37 155.893,8.757 153.516,8.757 C151.28,8.757 150.318,10.314 150.176,11.672 L156.912,11.672 L156.911,11.672 Z M140.838,11.192 C140.838,9.917 140.272,9.012 138.801,9.012 C137.527,9.012 136.481,9.862 135.971,10.597 L135.971,19.822 L132.348,19.822 L132.348,11.192 C132.348,9.917 131.782,9.012 130.311,9.012 C129.066,9.012 128.019,9.862 127.481,10.597 L127.481,19.822 L123.887,19.822 L123.887,6.154 L127.481,6.154 L127.481,7.908 C128.075,7.116 129.858,5.814 131.951,5.814 C133.961,5.814 135.263,6.748 135.744,8.276 C136.537,7.059 138.348,5.814 140.442,5.814 C142.962,5.814 144.462,7.144 144.462,9.946 L144.462,19.822 L140.839,19.822 L140.839,11.192 L140.838,11.192 Z M118,10.794 L118,19.821 L114.406,19.821 L114.406,6.154 L118,6.154 L118,7.994 C118.99,6.804 120.66,5.814 122.358,5.814 L122.358,9.324 C122.103,9.267 121.792,9.238 121.368,9.238 C120.178,9.238 118.594,9.918 118,10.795 L118,10.794 Z M105.18,20.161 C100.68,20.161 97.964,16.851 97.964,12.973 C97.964,9.096 100.681,5.813 105.181,5.813 C109.709,5.813 112.426,9.096 112.426,12.973 C112.426,16.85 109.709,20.161 105.182,20.161 L105.18,20.161 Z M105.18,9.011 C102.945,9.011 101.7,10.851 101.7,12.973 C101.7,15.123 102.945,16.963 105.18,16.963 C107.445,16.963 108.69,15.123 108.69,12.973 C108.69,10.85 107.445,9.011 105.18,9.011 L105.18,9.011 Z M96.408,3.606 C95.388,3.606 94.71,4.256 94.71,5.586 L94.71,6.153 L97.483,6.153 L97.483,9.293 L94.71,9.293 L94.71,19.821 L91.116,19.821 L91.116,9.295 L88.852,9.295 L88.852,6.155 L91.116,6.155 L91.116,5.588 C91.116,2.503 92.956,0.664 95.7,0.664 C97.03,0.664 98.446,1.031 99.266,1.964 L97.908,4.144 C97.54,3.804 97.058,3.607 96.408,3.607 L96.408,3.606 Z M83.843,11.56 C83.843,9.663 82.853,9.012 81.325,9.012 C79.91,9.012 78.835,9.804 78.212,10.597 L78.212,19.822 L74.618,19.822 L74.618,6.154 L78.212,6.154 L78.212,7.908 C79.089,6.888 80.787,5.814 82.994,5.814 C86.022,5.814 87.466,7.512 87.466,10.172 L87.466,19.822 L83.843,19.822 L83.843,11.56 L83.843,11.56 Z M67.656,0.946 L71.676,0.946 L71.676,19.821 L67.656,19.821 L67.656,0.947 L67.656,0.946 Z" id="Shape" fill="#464646"></path>
            <path d="M64.558,19.822 L60.058,19.822 L56.436,14.558 L54.796,16.313 L54.796,19.823 L51.2,19.823 L51.2,0.946 L54.795,0.946 L54.795,12.236 L59.973,6.153 L64.388,6.153 L58.983,12.35 L64.558,19.822 L64.558,19.822 Z M43.078,17.219 C44.238,17.219 45.824,16.737 46.701,15.889 L48.315,18.265 C46.957,19.51 44.805,20.161 42.685,20.161 C38.525,20.161 35.382,17.359 35.382,12.973 C35.382,9.011 38.327,5.813 42.458,5.813 C46.562,5.813 49.308,8.869 49.308,13.313 L49.308,14.161 L39.148,14.161 C39.402,15.831 40.76,17.218 43.081,17.218 L43.078,17.219 Z M45.852,11.671 C45.739,10.369 44.832,8.756 42.456,8.756 C40.221,8.756 39.258,10.313 39.116,11.671 L45.852,11.671 L45.852,11.671 Z M28.137,17.22 C29.297,17.22 30.882,16.738 31.759,15.89 L33.371,18.266 C32.013,19.511 29.861,20.162 27.741,20.162 C23.581,20.162 20.439,17.36 20.439,12.974 C20.439,9.012 23.382,5.814 27.513,5.814 C31.617,5.814 34.363,8.87 34.363,13.314 L34.363,14.162 L24.203,14.162 C24.457,15.832 25.816,17.219 28.136,17.219 L28.137,17.22 Z M30.91,11.672 C30.797,10.37 29.892,8.757 27.514,8.757 C25.279,8.757 24.317,10.314 24.174,11.672 L30.91,11.672 L30.91,11.672 Z M10.903,20.162 C5.357,20.162 0.829,16.342 0.829,10.398 C0.829,4.428 5.356,0.635 10.902,0.635 C14.808,0.635 17.27,2.615 18.685,4.852 L15.375,6.662 C14.495,5.332 12.883,4.202 10.902,4.202 C7.45,4.202 4.959,6.832 4.959,10.398 C4.959,13.964 7.449,16.596 10.902,16.596 C12.572,16.596 14.128,15.86 14.892,15.153 L14.892,12.89 L9.912,12.89 L9.912,9.38 L18.912,9.38 L18.912,16.624 C16.987,18.774 14.298,20.162 10.902,20.162 L10.903,20.162 Z" id="Shape" fill="#78B6EA"></path>
        </g>
    </g>
</svg>